<svg id="Layer_1" data-name="Layer 1" xmlns="http://www.w3.org/2000/svg" xmlns:xlink="http://www.w3.org/1999/xlink" viewBox="0 0 500 500"><defs><style>.cls-1{fill:url(#linear-gradient);}.cls-2{fill:#fff;}</style><linearGradient id="linear-gradient" x1="100.4" y1="54.66" x2="394.31" y2="438.43" gradientUnits="userSpaceOnUse"><stop offset="0.01" stop-color="#f49b31"/><stop offset="1" stop-color="#f7931e"/></linearGradient></defs><circle class="cls-1" cx="250" cy="250" r="250"/><path class="cls-2" d="M187.21,117.2A105.32,105.32,0,1,1,319,278.55c.6.8,1.19,1.59,1.8,2.38,3.44,4.46,7.13,8.7,10.86,12.9,4.2,4.71,8.46,9.38,12.49,14.25s7.48,10.34,9.11,16.45c.68,2.55.95,5.54-.7,7.6a6.39,6.39,0,0,1-5.39,2.11,14.49,14.49,0,0,1-5.68-1.87c-11.39-6-19.14-16.73-26.35-27a139.49,139.49,0,0,1-11.45-19.28,105.85,105.85,0,0,1-12,3.9A105.32,105.32,0,0,1,187.21,117.2Zm-6.16,76a84.09,84.09,0,0,0,56.13,74.27,83.83,83.83,0,0,0,59.12-1.21c-.44-1.69-.81-3.39-1.09-5.08a22.91,22.91,0,0,1-16.88-2.48c-7.72-4.41-12.92-11.37-16.93-19a79.5,79.5,0,0,1-7.23-21.26c-1.93-10.36-3.22-27.5,8-33.21,11.49-5.18,24,6.53,30.91,14.55a79.39,79.39,0,0,1,12,18.94c3.17,7.21,5.2,15.14,4.45,23.15a24.3,24.3,0,0,1-5.68,13.63c1.05,1.85,2.13,3.67,3.23,5.48a84.74,84.74,0,0,0,8.25-5.4A84.25,84.25,0,0,0,260,104a84.66,84.66,0,0,0-45.09,16.5,84.39,84.39,0,0,0-33.82,72.75ZM294.42,222a61.41,61.41,0,0,0-15.26-23.76c-3.3-3-9.07-7.3-13.38-5.44-4.14,2.19-4.4,9.39-4.13,13.84a61.56,61.56,0,0,0,9,26.78c3.79,6.34,13.3,17.52,21.54,14.37C299.76,243.22,297,229,294.42,222Z"/><path class="cls-2" d="M260.88,119.07a69.13,69.13,0,0,1,72,55.27,10.54,10.54,0,1,1-20.66,4.2h0a48.35,48.35,0,0,0-10.6-21.72,47.45,47.45,0,0,0-9.15-8.26,48,48,0,0,0-48.09-3.8,10.54,10.54,0,1,1-9.11-19A69.23,69.23,0,0,1,260.88,119.07Z"/><path class="cls-2" d="M171.48,310.63v7.49H140.87A3.85,3.85,0,0,0,137,322v3.89h27v7.49H137v19.23h-7.43V322a11.3,11.3,0,0,1,11.26-11.32Z"/><path class="cls-2" d="M212.57,331.59a21,21,0,1,1-21-21A21,21,0,0,1,212.57,331.59Zm-7.49,0a13.48,13.48,0,1,0-13.48,13.48A13.5,13.5,0,0,0,205.08,331.59Z"/><path class="cls-2" d="M257.49,331.59a21,21,0,1,1-21-21A21,21,0,0,1,257.49,331.59Zm-7.49,0a13.48,13.48,0,1,0-13.48,13.48A13.5,13.5,0,0,0,250,331.59Z"/><path class="cls-2" d="M282.88,310.69a20.9,20.9,0,0,1,16,34.44c-.35.42-.77.84-1.19,1.26a20.62,20.62,0,0,1-14.74,6.17H262V310.63Zm-13.47,34.44h13.47a13.48,13.48,0,1,0,0-26.95H269.41Z"/><path class="cls-2" d="M170.55,375.27v7.49H139.94a3.86,3.86,0,0,0-3.83,3.83v3.9h26.95V398h-27V417.2h-7.43V386.59a11.3,11.3,0,0,1,11.26-11.32Z"/><path class="cls-2" d="M176.48,417.2V375.27H184V417.2Z"/><path class="cls-2" d="M231.88,375.33v41.93l-7.48-5.75-27-20.78v26.53H190V375.45l7.49,5.75,27,20.79V375.27Z"/><path class="cls-2" d="M258.77,375.33a20.91,20.91,0,0,1,16,34.44c-.36.42-.78.84-1.2,1.26a20.61,20.61,0,0,1-14.74,6.17h-21V375.27ZM245.3,409.77h13.47a13.48,13.48,0,1,0,0-26.95H245.3Z"/><path class="cls-2" d="M293.27,386.59v3.9h27V398h-27v7.91a3.86,3.86,0,0,0,3.84,3.83h30.6v7.49h-30.6a11.3,11.3,0,0,1-11.26-11.32V386.59a11.3,11.3,0,0,1,11.26-11.32h30.6v7.49h-30.6A3.86,3.86,0,0,0,293.27,386.59Z"/><path class="cls-2" d="M367.54,409.77l3.84,7.49H363l-3.83-7.49-4-7.84-.18-.36a7.4,7.4,0,0,0-6.34-3.6h-7.49v19.29h-7.49V375.33h26.48a11.2,11.2,0,0,1,8,3.3A11.37,11.37,0,0,1,364.79,397a10,10,0,0,1-3.24.89Zm-7.42-19.28a3.46,3.46,0,0,0,1.55-.36,3.81,3.81,0,0,0,2.28-3.48,4,4,0,0,0-1.14-2.75,3.77,3.77,0,0,0-2.69-1.08h-19v7.73Z"/></svg>